<svg width="279" height="146" viewBox="0 0 279 146" fill="none" xmlns="http://www.w3.org/2000/svg">
<g clip-path="url(#clip0_844_241955)">
<path fill-rule="evenodd" clip-rule="evenodd" d="M117.991 28.8119C117.054 31.754 106.8 36.0228 105.689 33.9604C104.579 31.9125 108.805 18.8607 111.819 17.9088C114.645 17.0146 118.914 25.8698 117.991 28.8119Z" stroke="black" stroke-width="1.36162" stroke-miterlimit="1.5" stroke-linecap="round" stroke-linejoin="round"/>
<path fill-rule="evenodd" clip-rule="evenodd" d="M163.451 31.5485C162.687 33.9859 151.87 31.6639 150.601 28.9669C149.346 26.27 151.913 15.4102 154.625 15.4102C157.913 15.4102 164.23 29.1112 163.451 31.5485Z" stroke="black" stroke-width="1.36162" stroke-miterlimit="1.5" stroke-linecap="round" stroke-linejoin="round"/>
<path fill-rule="evenodd" clip-rule="evenodd" d="M116.974 47.9474C104.744 46.9234 104.196 65.3404 114.926 65.7731C128.065 66.3067 126.464 48.755 116.974 47.9474Z" stroke="black" stroke-width="1.36162" stroke-miterlimit="1.5" stroke-linecap="round" stroke-linejoin="round"/>
<path fill-rule="evenodd" clip-rule="evenodd" d="M116.482 53.0069C109.17 52.6608 111.261 62.5542 116.482 61.3427C121.299 60.2322 120.765 53.2088 116.482 53.0069Z" fill="black"/>
<path fill-rule="evenodd" clip-rule="evenodd" d="M150.791 45.252C137.205 45.252 138.633 64.8948 152.089 62.9911C155.709 62.4864 158.997 58.6356 158.997 52.8379C158.997 48.742 154.93 45.252 150.791 45.252Z" stroke="black" stroke-width="1.36162" stroke-miterlimit="1.5" stroke-linecap="round" stroke-linejoin="round"/>
<path fill-rule="evenodd" clip-rule="evenodd" d="M150.831 50.2553C145.338 49.0396 144.268 57.2527 148.81 58.157C154.464 59.2837 155.9 51.3672 150.831 50.2553Z" fill="black"/>
<path fill-rule="evenodd" clip-rule="evenodd" d="M134.445 69.4071C132.895 69.3417 128.876 66.5401 129.792 65.1333C130.797 63.6045 139.445 63.2362 139.115 65.5033C138.99 66.3455 136 69.4589 134.445 69.4071Z" stroke="black" stroke-width="1.36162" stroke-miterlimit="1.5" stroke-linecap="round" stroke-linejoin="round"/>
<path d="M122.824 73.0763C120.877 75.5425 119.492 80.172 119.492 83.316M127.468 73.6532C127.9 77.4173 127.021 82.1622 126.646 84.9168M133.785 73.4656C134.362 77.0567 134.881 80.7486 134.881 85.1185M139.034 72.4272C139.957 74.3454 141.601 80.9796 142.149 84.0947M143.765 70.7626C145.654 73.171 147.847 78.4495 149.058 82.0118M147.407 68.6546C150.565 70.342 153.305 75.3031 153.998 79.3557M147.327 68.461C137.044 76.0182 123.285 73.0617 121.209 72.7732C114.488 71.8502 110.046 83.2726 125.319 85.234C135.313 86.5031 155.922 84.383 156.413 74.3597C156.817 66.1823 150.485 66.1246 147.327 68.461Z" stroke="black" stroke-width="1.36162" stroke-miterlimit="1.5" stroke-linecap="round" stroke-linejoin="round"/>
<path fill-rule="evenodd" clip-rule="evenodd" d="M163.819 59.2135C159.248 60.1509 154.157 65.8334 159.291 67.5352C163.17 68.8332 167.108 63.4249 167.295 62.9922C168.694 59.8194 166.17 58.7231 163.819 59.2135Z" stroke="black" stroke-width="1.36162" stroke-miterlimit="1.5" stroke-linecap="round" stroke-linejoin="round"/>
<path fill-rule="evenodd" clip-rule="evenodd" d="M110.336 67.0686C107.186 65.6277 105.137 65.5766 103.947 66.1189C102.175 66.9365 102.542 69.0985 104.126 70.3342C105.827 71.681 110.503 73.6019 112.82 71.8347C114.819 70.3176 112.072 67.8533 110.336 67.0686Z" stroke="black" stroke-width="1.36162" stroke-miterlimit="1.5" stroke-linecap="round" stroke-linejoin="round"/>
<path d="M102.727 72.3477C96.5545 74.0062 94.6219 75.4051 93.9297 75.9532" stroke="black" stroke-width="1.36162" stroke-miterlimit="1.5" stroke-linecap="round" stroke-linejoin="round"/>
<path d="M104.125 75.6055C103.331 76.1679 97.0144 80.8262 96.4375 81.1002" stroke="black" stroke-width="1.36162" stroke-miterlimit="1.5" stroke-linecap="round" stroke-linejoin="round"/>
<path d="M163.031 72.666C164.401 73.9784 169.002 77.0938 170.632 77.887" stroke="black" stroke-width="1.36162" stroke-miterlimit="1.5" stroke-linecap="round" stroke-linejoin="round"/>
<path d="M164.648 70.2598C167.071 71.0097 170.706 72.0482 173.619 73.3461" stroke="black" stroke-width="1.36162" stroke-miterlimit="1.5" stroke-linecap="round" stroke-linejoin="round"/>
<path fill-rule="evenodd" clip-rule="evenodd" d="M126.436 26.6414C122.038 22.358 118.187 3.95532 112.274 3.95532C102.049 3.95532 100.275 31.9919 98.6452 37.2703C95.6598 46.962 92.2995 62.0041 98.6452 76.0224C101.818 83.046 111.25 92.4059 132.22 91.8002C137.21 91.656 152.151 89.4206 160.256 83.5796C177.563 71.1045 175.89 45.5919 170.626 30.0593C165.78 15.7814 158.713 2.48438 152.584 2.48438C145.748 2.48438 145.56 22.6609 141.046 26.6414C138.962 28.4794 128.182 28.6955 126.436 26.6414Z" stroke="black" stroke-width="1.36162" stroke-miterlimit="1.5" stroke-linecap="round" stroke-linejoin="round"/>
<path fill-rule="evenodd" clip-rule="evenodd" d="M167.707 69.5189C165.389 67.499 162.086 60.4176 162.086 55.0717C162.086 52.8627 165.14 51.4784 171.16 63.0243C173.196 56.1763 172.812 45.293 177.253 45.293C180.396 45.293 178.714 57.5016 177.696 61.1245C180.351 61.1245 185.019 59.4578 185.019 69.428C185.019 74.4057 181.266 86.3959 171.573 86.3959C163.989 86.3959 163.547 72.8766 167.707 69.5189Z" stroke="black" stroke-width="1.36162" stroke-miterlimit="1.5" stroke-linecap="round" stroke-linejoin="round"/>
</g>
<path d="M260.919 107.344C263.821 107.344 265.84 107.761 266.974 108.595C268.142 109.429 268.726 110.63 268.726 112.198C268.726 113.967 268.042 115.301 266.674 116.202C265.306 117.07 263.204 117.503 260.368 117.503C259.267 117.503 257.999 117.487 256.564 117.453C255.163 117.387 253.695 117.286 252.16 117.153L252.561 116.703C252.894 117.603 253.044 118.604 253.011 119.705C252.978 120.806 252.778 121.841 252.411 122.808L251.76 122.858C252.627 122.525 253.662 122.241 254.863 122.008C256.097 121.741 257.349 121.54 258.616 121.407C259.918 121.24 261.119 121.157 262.22 121.157C264.522 121.157 266.14 121.49 267.074 122.158C268.009 122.825 268.476 123.609 268.476 124.51C268.476 125.544 267.875 126.428 266.674 127.162C265.506 127.896 263.488 128.263 260.618 128.263C259.184 128.263 257.682 128.23 256.114 128.163C254.579 128.063 253.044 127.93 251.51 127.763L252.26 127.613C252.594 128.28 252.811 129.064 252.911 129.965C253.011 130.866 253.011 131.767 252.911 132.668C252.811 133.568 252.594 134.369 252.26 135.07L252.11 134.619C253.044 134.286 254.095 134.002 255.263 133.769C256.464 133.535 257.682 133.368 258.917 133.268C260.185 133.135 261.352 133.068 262.42 133.068C264.655 133.068 266.324 133.352 267.425 133.919C268.559 134.486 269.126 135.437 269.126 136.771C269.126 138.073 268.659 139.207 267.725 140.175C266.824 141.142 265.623 141.893 264.122 142.427C262.654 142.961 261.052 143.227 259.317 143.227C255.614 143.227 252.611 142.744 250.309 141.776C248.006 140.809 246.288 139.391 245.154 137.522C244.72 136.721 244.32 135.821 243.953 134.82C243.586 133.785 243.302 132.601 243.102 131.266C242.935 129.898 242.852 128.364 242.852 126.662C242.852 123.692 243.135 121.09 243.702 118.855C244.303 116.619 245.12 114.801 246.155 113.399C247.723 111.297 249.758 109.763 252.26 108.795C254.796 107.828 257.682 107.344 260.919 107.344Z" fill="black"/>
<path d="M224.624 143.325C219.719 143.325 216.166 142.14 213.964 139.771C211.795 137.402 210.711 133.515 210.711 128.11C210.711 126.342 210.761 124.54 210.861 122.705C210.995 120.837 211.161 119.052 211.362 117.35C211.595 115.615 211.845 114.097 212.112 112.796C212.513 111.061 213.197 109.693 214.164 108.692C215.132 107.658 216.5 107.141 218.268 107.141C219.87 107.141 221.104 107.541 221.972 108.342C222.839 109.142 223.273 110.327 223.273 111.895C223.273 112.596 223.156 113.563 222.922 114.798C222.689 115.999 222.422 117.317 222.122 118.752C221.855 120.186 221.605 121.588 221.371 122.955C221.137 124.323 221.021 125.508 221.021 126.509C221.021 128.344 221.404 129.645 222.172 130.412C222.972 131.146 224.057 131.514 225.425 131.514C226.826 131.514 227.86 131.113 228.528 130.312C229.228 129.512 229.579 128.244 229.579 126.509C229.579 125.641 229.512 124.524 229.379 123.156C229.245 121.754 229.095 120.303 228.928 118.802C228.761 117.3 228.611 115.932 228.478 114.698C228.344 113.43 228.277 112.462 228.277 111.795C228.277 108.158 229.896 106.34 233.132 106.34C234.8 106.34 236.068 106.79 236.936 107.691C237.836 108.592 238.454 109.943 238.787 111.745C239.021 112.946 239.221 114.397 239.388 116.099C239.555 117.801 239.672 119.569 239.738 121.404C239.838 123.206 239.888 124.924 239.888 126.559C239.888 130.529 239.355 133.749 238.287 136.218C237.219 138.654 235.568 140.455 233.332 141.623C231.13 142.757 228.227 143.325 224.624 143.325Z" fill="black"/>
<path d="M199.251 128.363C198.684 128.396 198.167 128.429 197.7 128.463C197.233 128.496 196.766 128.513 196.299 128.513C193.396 128.513 191.411 128.179 190.343 127.512C189.309 126.845 188.791 125.927 188.791 124.759C188.791 123.859 189.175 123.141 189.943 122.607C190.743 122.04 191.811 121.64 193.146 121.406C194.514 121.173 196.032 121.056 197.7 121.056C200.135 121.056 202.154 121.223 203.756 121.556C205.39 121.857 206.608 122.324 207.409 122.958C208.243 123.592 208.66 124.376 208.66 125.31C208.66 126.177 208.243 126.895 207.409 127.462C206.608 128.029 205.29 128.346 203.455 128.413L199.251 128.363ZM202.955 127.712C203.922 128.513 204.606 129.43 205.007 130.465C205.44 131.466 205.657 132.55 205.657 133.718C205.657 135.419 205.174 137.054 204.206 138.622C203.238 140.191 201.72 141.475 199.652 142.476C197.616 143.477 194.947 143.977 191.644 143.977C187.807 143.977 184.621 143.243 182.085 141.775C179.549 140.307 177.664 138.239 176.43 135.57C175.195 132.9 174.578 129.781 174.578 126.211C174.578 122.441 175.429 119.104 177.131 116.201C178.865 113.265 181.284 110.98 184.387 109.345C187.524 107.71 191.194 106.893 195.398 106.893C198.868 106.893 201.52 107.46 203.355 108.594C205.19 109.695 206.108 111.263 206.108 113.299C206.108 114.566 205.607 115.567 204.606 116.301C203.639 117.002 202.187 117.352 200.252 117.352C199.218 117.352 198.1 117.286 196.899 117.152C195.731 117.019 194.547 116.952 193.346 116.952C191.744 116.952 190.243 117.236 188.842 117.803C187.474 118.337 186.373 119.238 185.538 120.505C184.738 121.773 184.337 123.475 184.337 125.61C184.337 127.579 184.654 129.214 185.288 130.515C185.922 131.783 186.806 132.717 187.941 133.317C189.108 133.885 190.426 134.168 191.894 134.168C193.796 134.168 195.064 133.785 195.698 133.017C196.332 132.25 196.649 131.082 196.649 129.514C196.649 129.113 196.616 128.696 196.549 128.263C196.515 127.829 196.432 127.379 196.299 126.911L202.955 127.712Z" fill="black"/>
<path d="M154.697 141.125C151.227 141.125 148.208 140.508 145.639 139.274C143.07 138.039 141.068 136.238 139.633 133.869C138.232 131.466 137.531 128.564 137.531 125.16C137.531 122.425 137.965 119.922 138.832 117.653C139.733 115.385 140.984 113.416 142.586 111.748C144.221 110.08 146.089 108.795 148.191 107.894C150.293 106.993 152.529 106.543 154.898 106.543C157.266 106.543 159.485 106.977 161.554 107.844C163.656 108.712 165.508 109.929 167.109 111.498C168.711 113.066 169.962 114.918 170.863 117.053C171.763 119.188 172.214 121.54 172.214 124.109C172.214 127.746 171.48 130.849 170.012 133.418C168.577 135.954 166.542 137.872 163.906 139.174C161.304 140.475 158.234 141.125 154.697 141.125ZM154.397 129.414C156.499 129.414 158.184 128.864 159.452 127.763C160.72 126.629 161.354 125.044 161.354 123.008C161.354 121.64 161.053 120.456 160.453 119.455C159.852 118.454 159.018 117.67 157.95 117.103C156.916 116.536 155.732 116.252 154.397 116.252C153.096 116.252 151.911 116.536 150.844 117.103C149.809 117.67 148.992 118.454 148.391 119.455C147.791 120.456 147.491 121.64 147.491 123.008C147.491 125.044 148.125 126.629 149.392 127.763C150.66 128.864 152.328 129.414 154.397 129.414Z" fill="black"/>
<path d="M120.879 143.227C118.576 143.227 116.758 142.927 115.423 142.326C114.122 141.726 113.105 140.775 112.371 139.473C111.737 138.306 111.253 136.687 110.919 134.619C110.619 132.55 110.469 129.764 110.469 126.261C110.469 123.525 110.569 120.906 110.769 118.404C110.969 115.868 111.203 113.899 111.47 112.498C111.87 110.396 112.521 108.895 113.422 107.994C114.356 107.093 115.523 106.643 116.925 106.643C118.393 106.643 119.527 107.093 120.328 107.994C121.162 108.895 121.746 110.113 122.08 111.647C122.447 113.149 122.63 114.834 122.63 116.702C122.63 119.571 122.38 122.491 121.879 125.46C121.379 128.43 120.712 131.166 119.878 133.668L118.877 133.618C119.944 132.517 121.145 131.599 122.48 130.865C123.848 130.131 125.249 129.581 126.684 129.214C128.119 128.813 129.503 128.613 130.838 128.613C132.64 128.613 134.008 129.064 134.942 129.965C135.909 130.832 136.393 132.066 136.393 133.668C136.393 135.169 135.909 136.571 134.942 137.872C134.008 139.173 132.756 140.224 131.188 141.025C130.321 141.492 129.303 141.892 128.135 142.226C127.001 142.526 125.8 142.76 124.532 142.927C123.297 143.127 122.08 143.227 120.879 143.227Z" fill="black"/>
<path d="M69.7578 117.003C69.7578 113.199 70.2583 110.48 71.2592 108.845C72.2935 107.177 73.845 106.343 75.9136 106.343C77.4817 106.343 78.6829 106.693 79.517 107.394C80.3845 108.061 80.985 108.995 81.3187 110.196C81.6857 111.364 81.8692 112.665 81.8692 114.1C81.8692 115.368 81.8191 116.852 81.7191 118.554C81.6523 120.256 81.5522 121.991 81.4188 123.759C81.3187 125.527 81.1852 127.179 81.0184 128.714H81.2186C82.0861 124.743 82.9035 121.59 83.6709 119.255C84.4716 116.886 85.2891 115.184 86.1232 114.15C86.9907 113.082 87.9082 112.548 88.8758 112.548C89.9101 112.548 90.8443 113.082 91.6784 114.15C92.5459 115.184 93.38 116.869 94.1808 119.205C95.0149 121.507 95.8824 124.543 96.7832 128.313H96.9834C96.8833 126.812 96.7832 125.244 96.6831 123.609C96.6164 121.974 96.5497 120.356 96.4829 118.754C96.4496 117.153 96.4329 115.668 96.4329 114.3C96.4329 112.098 96.5997 110.396 96.9334 109.195C97.267 107.994 97.7508 107.16 98.3847 106.693C99.0187 106.226 99.736 105.992 100.537 105.992C102.539 105.992 104.09 106.876 105.191 108.645C106.326 110.413 106.893 113.015 106.893 116.452C106.893 121.957 106.576 126.562 105.942 130.265C105.308 133.935 104.374 136.704 103.139 138.573C101.938 140.408 100.437 141.325 98.635 141.325C97.7675 141.325 96.8833 141.042 95.9825 140.475C95.0816 139.874 94.1975 138.906 93.33 137.572C92.4959 136.237 91.6784 134.486 90.8777 132.317C90.1103 130.148 89.3929 127.479 88.7256 124.309H88.5255C87.8248 127.412 87.0908 130.015 86.3234 132.117C85.5894 134.185 84.7886 135.82 83.9211 137.021C83.087 138.222 82.2028 139.09 81.2686 139.624C80.3344 140.124 79.3502 140.375 78.3159 140.375C76.9145 140.375 75.6634 139.924 74.5623 139.023C73.4947 138.122 72.6105 136.721 71.9098 134.819C71.2092 132.917 70.6753 130.499 70.3083 127.562C69.9413 124.626 69.7578 121.106 69.7578 117.003Z" fill="black"/>
<path d="M42.0923 145.28C40.4241 145.28 39.1396 144.763 38.2387 143.728C37.3712 142.728 36.9375 140.892 36.9375 138.223C36.9375 136.889 37.071 135.404 37.3379 133.769C37.6382 132.134 38.0719 130.416 38.6391 128.614C39.2063 126.813 39.907 124.961 40.7411 123.059C41.5752 121.157 42.5261 119.272 43.5938 117.404C44.8283 115.268 46.0294 113.55 47.1971 112.249C48.3649 110.914 49.566 109.947 50.8005 109.346C52.0684 108.746 53.4864 108.445 55.0545 108.445C57.0898 108.445 58.9082 109.279 60.5097 110.948C62.1112 112.583 63.4291 115.018 64.4634 118.255C65.0306 120.023 65.4977 121.891 65.8647 123.86C66.2651 125.795 66.5653 127.763 66.7655 129.765C66.9657 131.767 67.0658 133.736 67.0658 135.671C67.0658 138.774 66.5153 140.993 65.4143 142.327C64.3132 143.628 62.7785 144.279 60.8099 144.279C59.1083 144.279 57.7571 143.779 56.7561 142.778C55.7886 141.743 55.188 140.058 54.9544 137.723C54.821 136.522 54.7542 135.271 54.7542 133.969C54.7542 132.668 54.821 131.417 54.9544 130.216L57.5569 134.77C56.6227 135.07 55.4549 135.254 54.0536 135.321C52.6856 135.387 51.251 135.354 49.7495 135.22C48.2815 135.087 46.8969 134.82 45.5956 134.42L49.5994 129.966C49.5327 131.5 49.4159 133.018 49.2491 134.52C49.0823 136.021 48.8654 137.373 48.5985 138.574C48.3315 140.008 47.9312 141.243 47.3973 142.277C46.8969 143.278 46.2129 144.029 45.3454 144.529C44.5113 145.03 43.4269 145.28 42.0923 145.28ZM52.402 128.014C54.0703 128.014 55.3548 127.563 56.2557 126.662C57.1565 125.728 57.6069 124.41 57.6069 122.709C57.6069 121.941 57.5235 121.207 57.3567 120.507C57.1899 119.773 56.923 119.122 56.5559 118.555C56.2223 117.988 55.8052 117.554 55.3048 117.254C54.8043 116.92 54.2371 116.753 53.6032 116.753C52.8358 116.753 52.1351 116.987 51.5012 117.454C50.8673 117.921 50.3001 118.538 49.7996 119.306C49.3325 120.073 48.9655 120.89 48.6986 121.758C48.465 122.625 48.3482 123.443 48.3482 124.21C48.3482 125.345 48.6986 126.262 49.3992 126.963C50.1332 127.663 51.1342 128.014 52.402 128.014Z" fill="black"/>
<path d="M25.2504 106.941C29.5545 106.941 32.7241 107.959 34.7594 109.994C36.7946 112.03 37.8122 114.699 37.8122 118.002C37.8122 120.271 37.2784 122.239 36.2107 123.907C35.1764 125.576 33.7584 126.877 31.9567 127.811C30.155 128.712 28.1198 129.162 25.851 129.162C24.9835 129.162 24.066 129.079 23.0984 128.912C22.1308 128.745 21.1299 128.445 20.0956 128.011L20.496 126.81C20.7629 127.577 20.9797 128.528 21.1466 129.663C21.3468 130.764 21.4969 131.915 21.597 133.116C21.7305 134.284 21.7972 135.368 21.7972 136.369C21.7972 138.605 21.2967 140.323 20.2958 141.524C19.2948 142.692 17.7934 143.276 15.7915 143.276C14.2568 143.276 13.0556 142.892 12.1881 142.124C11.3207 141.324 10.7034 140.039 10.3364 138.271C10.0028 136.469 9.83594 134.084 9.83594 131.114C9.83594 126.743 10.0862 123.007 10.5866 119.904C11.0871 116.801 11.8378 114.332 12.8388 112.497C13.8063 110.795 15.3411 109.444 17.4431 108.443C19.5451 107.442 22.1475 106.941 25.2504 106.941ZM23.9492 122.306C25.6842 122.306 27.1189 121.855 28.2533 120.955C29.3877 120.054 29.9548 118.803 29.9548 117.201C29.9548 116.167 29.6212 115.316 28.9539 114.649C28.2866 113.948 27.1856 113.598 25.6508 113.598C24.483 113.598 23.4487 113.848 22.5479 114.348C21.647 114.849 20.9464 115.516 20.4459 116.35C19.9788 117.151 19.7453 118.052 19.7453 119.053C19.7453 120.054 20.0956 120.854 20.7962 121.455C21.4969 122.022 22.5479 122.306 23.9492 122.306Z" fill="black"/>
<defs>
<clipPath id="clip0_844_241955">
<rect width="92.5898" height="92.5898" fill="white" transform="translate(93.1875 0.890625)"/>
</clipPath>
</defs>
</svg>
