<svg width="188" height="97" viewBox="0 0 188 97" fill="none" xmlns="http://www.w3.org/2000/svg">
<g clip-path="url(#clip0_929_310)">
<path fill-rule="evenodd" clip-rule="evenodd" d="M79.5649 18.7341C78.9358 20.7085 72.0545 23.5732 71.3093 22.1892C70.5641 20.8149 73.3998 12.0561 75.4226 11.4174C77.3195 10.8173 80.1843 16.7597 79.5649 18.7341Z" stroke="#7D5C0F" stroke-width="0.913745" stroke-miterlimit="1.5" stroke-linecap="round" stroke-linejoin="round"/>
<path fill-rule="evenodd" clip-rule="evenodd" d="M110.077 20.5703C109.565 22.2059 102.306 20.6477 101.454 18.8378C100.612 17.028 102.335 9.74023 104.154 9.74023C106.361 9.74023 110.6 18.9347 110.077 20.5703Z" stroke="#7D5C0F" stroke-width="0.913745" stroke-miterlimit="1.5" stroke-linecap="round" stroke-linejoin="round"/>
<path fill-rule="evenodd" clip-rule="evenodd" d="M78.882 31.5765C70.6748 30.8893 70.3071 43.2484 77.5077 43.5388C86.3247 43.8969 85.2503 32.1184 78.882 31.5765Z" stroke="#7D5C0F" stroke-width="0.913745" stroke-miterlimit="1.5" stroke-linecap="round" stroke-linejoin="round"/>
<path fill-rule="evenodd" clip-rule="evenodd" d="M78.5506 34.9708C73.6437 34.7385 75.047 41.3777 78.5506 40.5647C81.7831 39.8195 81.425 35.1063 78.5506 34.9708Z" fill="#7D5C0F"/>
<path fill-rule="evenodd" clip-rule="evenodd" d="M101.574 29.7676C92.4573 29.7676 93.4155 42.9494 102.445 41.6719C104.875 41.3331 107.081 38.749 107.081 34.8583C107.081 32.1097 104.352 29.7676 101.574 29.7676Z" stroke="#7D5C0F" stroke-width="0.913745" stroke-miterlimit="1.5" stroke-linecap="round" stroke-linejoin="round"/>
<path fill-rule="evenodd" clip-rule="evenodd" d="M101.599 33.1252C97.9126 32.3093 97.1949 37.8209 100.242 38.4278C104.037 39.1839 105 33.8713 101.599 33.1252Z" fill="#7D5C0F"/>
<path fill-rule="evenodd" clip-rule="evenodd" d="M90.6038 45.978C89.5637 45.9341 86.8667 44.054 87.4817 43.1099C88.1559 42.084 93.9593 41.8368 93.7379 43.3583C93.6541 43.9234 91.6471 46.0127 90.6038 45.978Z" stroke="#7D5C0F" stroke-width="0.913745" stroke-miterlimit="1.5" stroke-linecap="round" stroke-linejoin="round"/>
<path d="M82.8023 48.4397C81.4957 50.0947 80.5666 53.2014 80.5666 55.3113M85.9187 48.8268C86.2091 51.3529 85.6188 54.537 85.3671 56.3855M90.1579 48.7009C90.545 51.1108 90.8934 53.5884 90.8934 56.5209M93.6804 48.0041C94.2999 49.2913 95.4031 53.7434 95.7709 55.8339M96.8556 46.887C98.1234 48.5033 99.5946 52.0455 100.408 54.4361M99.2995 45.4724C101.419 46.6048 103.258 49.934 103.722 52.6536M99.2458 45.3425C92.3452 50.4139 83.1121 48.4299 81.7184 48.2363C77.2083 47.6169 74.2274 55.2822 84.4768 56.5984C91.1838 57.4501 105.014 56.0273 105.343 49.3009C105.614 43.8133 101.365 43.7746 99.2458 45.3425Z" stroke="#7D5C0F" stroke-width="0.913745" stroke-miterlimit="1.5" stroke-linecap="round" stroke-linejoin="round"/>
<path fill-rule="evenodd" clip-rule="evenodd" d="M110.318 39.1356C107.25 39.7647 103.833 43.5781 107.279 44.7201C109.882 45.5912 112.525 41.9618 112.65 41.6715C113.589 39.5423 111.895 38.8066 110.318 39.1356Z" stroke="#7D5C0F" stroke-width="0.913745" stroke-miterlimit="1.5" stroke-linecap="round" stroke-linejoin="round"/>
<path fill-rule="evenodd" clip-rule="evenodd" d="M74.4333 44.4071C72.3198 43.4401 70.9443 43.4059 70.1456 43.7698C68.9568 44.3185 69.2032 45.7693 70.2659 46.5986C71.4072 47.5024 74.5456 48.7914 76.1003 47.6055C77.4421 46.5874 75.5983 44.9337 74.4333 44.4071Z" stroke="#7D5C0F" stroke-width="0.913745" stroke-miterlimit="1.5" stroke-linecap="round" stroke-linejoin="round"/>
<path d="M69.3178 47.9512C65.1755 49.0642 63.8786 50.003 63.4141 50.3707" stroke="#7D5C0F" stroke-width="0.913745" stroke-miterlimit="1.5" stroke-linecap="round" stroke-linejoin="round"/>
<path d="M70.2602 50.1367C69.7279 50.5142 65.4887 53.6402 65.1016 53.8241" stroke="#7D5C0F" stroke-width="0.913745" stroke-miterlimit="1.5" stroke-linecap="round" stroke-linejoin="round"/>
<path d="M109.789 48.1641C110.709 49.0448 113.796 51.1354 114.89 51.6677" stroke="#7D5C0F" stroke-width="0.913745" stroke-miterlimit="1.5" stroke-linecap="round" stroke-linejoin="round"/>
<path d="M110.875 46.5488C112.501 47.0521 114.94 47.749 116.895 48.62" stroke="#7D5C0F" stroke-width="0.913745" stroke-miterlimit="1.5" stroke-linecap="round" stroke-linejoin="round"/>
<path fill-rule="evenodd" clip-rule="evenodd" d="M85.2341 17.2776C82.2822 14.4031 79.6982 2.05352 75.7301 2.05352C68.8681 2.05352 67.6777 20.8681 66.5841 24.4104C64.5807 30.9142 62.3256 41.0086 66.5841 50.4159C68.7133 55.1292 75.0429 61.4105 89.1151 61.004C92.4638 60.9072 102.49 59.4071 107.93 55.4874C119.544 47.1156 118.421 29.9948 114.888 19.5712C111.637 9.98972 106.894 1.06641 102.781 1.06641C98.1934 1.06641 98.0676 14.6063 95.0383 17.2776C93.6395 18.511 86.4057 18.656 85.2341 17.2776Z" stroke="#7D5C0F" stroke-width="0.913745" stroke-miterlimit="1.5" stroke-linecap="round" stroke-linejoin="round"/>
<path fill-rule="evenodd" clip-rule="evenodd" d="M112.929 46.0523C111.373 44.6968 109.156 39.9447 109.156 36.3572C109.156 34.8748 111.206 33.9458 115.245 41.694C116.612 37.0984 116.354 29.7949 119.335 29.7949C121.443 29.7949 120.315 37.9879 119.632 40.419C121.414 40.419 124.546 39.3006 124.546 45.9913C124.546 49.3317 122.028 57.3781 115.523 57.3781C110.433 57.3781 110.136 48.3056 112.929 46.0523Z" stroke="#7D5C0F" stroke-width="0.913745" stroke-miterlimit="1.5" stroke-linecap="round" stroke-linejoin="round"/>
</g>
<path d="M175.484 71.4375C177.432 71.4375 178.786 71.7174 179.547 72.2771C180.331 72.8369 180.723 73.6429 180.723 74.6953C180.723 75.882 180.264 76.7776 179.346 77.3821C178.428 77.9642 177.017 78.2553 175.114 78.2553C174.375 78.2553 173.525 78.2441 172.562 78.2217C171.621 78.1769 170.636 78.1098 169.606 78.0202L169.875 77.7179C170.099 78.3225 170.2 78.9942 170.177 79.7331C170.155 80.4719 170.02 81.166 169.774 81.8154L169.338 81.8489C169.92 81.625 170.614 81.4347 171.42 81.278C172.248 81.0989 173.088 80.9645 173.939 80.875C174.812 80.763 175.618 80.707 176.357 80.707C177.902 80.707 178.988 80.9309 179.615 81.3787C180.242 81.8266 180.555 82.3527 180.555 82.9573C180.555 83.6514 180.152 84.2447 179.346 84.7373C178.562 85.2299 177.208 85.4762 175.282 85.4762C174.319 85.4762 173.312 85.4538 172.259 85.409C171.23 85.3418 170.2 85.2523 169.17 85.1403L169.673 85.0395C169.897 85.4873 170.043 86.0135 170.11 86.6181C170.177 87.2226 170.177 87.8271 170.11 88.4317C170.043 89.0362 169.897 89.5736 169.673 90.0438L169.573 89.7415C170.2 89.5176 170.905 89.3273 171.689 89.1705C172.495 89.0138 173.312 88.9019 174.14 88.8347C174.991 88.7451 175.775 88.7003 176.491 88.7003C177.991 88.7003 179.111 88.8907 179.85 89.2713C180.611 89.6519 180.992 90.29 180.992 91.1857C180.992 92.0589 180.678 92.8201 180.051 93.4695C179.447 94.1188 178.641 94.6226 177.633 94.9808C176.648 95.339 175.573 95.5182 174.409 95.5182C171.924 95.5182 169.909 95.1935 168.364 94.5442C166.819 93.8949 165.666 92.9433 164.904 91.6894C164.613 91.1521 164.345 90.5475 164.098 89.8758C163.852 89.1817 163.662 88.3869 163.527 87.4913C163.415 86.5733 163.359 85.5433 163.359 84.4014C163.359 82.4087 163.55 80.6623 163.93 79.1621C164.333 77.662 164.882 76.4417 165.576 75.5013C166.628 74.0907 167.994 73.0608 169.673 72.4115C171.375 71.7622 173.312 71.4375 175.484 71.4375Z" fill="#7D5C0F"/>
<path d="M151.134 95.5832C147.842 95.5832 145.458 94.7884 143.98 93.1987C142.525 91.609 141.797 89.0005 141.797 85.3733C141.797 84.1866 141.83 82.9775 141.898 81.7461C141.987 80.4922 142.099 79.2943 142.233 78.1524C142.39 76.9881 142.558 75.9694 142.737 75.0962C143.006 73.9319 143.465 73.0139 144.114 72.3422C144.764 71.6481 145.682 71.301 146.868 71.301C147.943 71.301 148.771 71.5697 149.354 72.1071C149.936 72.6444 150.227 73.4393 150.227 74.4916C150.227 74.9618 150.148 75.6111 149.992 76.4396C149.835 77.2456 149.656 78.13 149.454 79.0928C149.275 80.0556 149.107 80.996 148.951 81.914C148.794 82.832 148.715 83.6268 148.715 84.2985C148.715 85.53 148.973 86.4032 149.488 86.9182C150.025 87.4108 150.753 87.6571 151.671 87.6571C152.611 87.6571 153.305 87.3884 153.753 86.851C154.223 86.3137 154.459 85.4628 154.459 84.2985C154.459 83.7164 154.414 82.9663 154.324 82.0483C154.235 81.1079 154.134 80.134 154.022 79.1264C153.91 78.1189 153.809 77.2009 153.72 76.3724C153.63 75.5216 153.585 74.8723 153.585 74.4245C153.585 71.9839 154.671 70.7637 156.843 70.7637C157.963 70.7637 158.813 71.0659 159.396 71.6705C160 72.275 160.414 73.1818 160.638 74.3909C160.795 75.1969 160.929 76.1709 161.041 77.3128C161.153 78.4547 161.232 79.6414 161.276 80.8728C161.344 82.0819 161.377 83.235 161.377 84.3321C161.377 86.9966 161.019 89.1572 160.302 90.8141C159.586 92.4486 158.478 93.6577 156.977 94.4413C155.5 95.2026 153.552 95.5832 151.134 95.5832Z" fill="#7D5C0F"/>
<path d="M134.104 85.5429C133.724 85.5653 133.377 85.5876 133.063 85.61C132.75 85.6324 132.436 85.6436 132.123 85.6436C130.175 85.6436 128.843 85.4197 128.126 84.9719C127.432 84.5241 127.085 83.9084 127.085 83.1247C127.085 82.5202 127.343 82.0388 127.858 81.6806C128.395 81.2999 129.111 81.0312 130.007 80.8745C130.925 80.7178 131.944 80.6394 133.063 80.6394C134.698 80.6394 136.052 80.7514 137.127 80.9753C138.224 81.1768 139.041 81.4902 139.579 81.9156C140.139 82.3411 140.418 82.8672 140.418 83.4942C140.418 84.0763 140.139 84.5577 139.579 84.9383C139.041 85.319 138.157 85.5317 136.926 85.5764L134.104 85.5429ZM136.59 85.1063C137.239 85.6436 137.698 86.2593 137.967 86.9534C138.258 87.6252 138.403 88.3528 138.403 89.1365C138.403 90.2784 138.079 91.3755 137.429 92.4279C136.78 93.4802 135.761 94.3422 134.373 95.0139C133.007 95.6856 131.216 96.0215 128.999 96.0215C126.425 96.0215 124.286 95.5289 122.585 94.5437C120.883 93.5586 119.618 92.1704 118.79 90.3791C117.961 88.5879 117.547 86.4944 117.547 84.0987C117.547 81.5686 118.118 79.3296 119.26 77.3816C120.424 75.4113 122.047 73.8776 124.13 72.7804C126.234 71.6833 128.697 71.1348 131.518 71.1348C133.847 71.1348 135.627 71.5154 136.858 72.2767C138.09 73.0155 138.706 74.0679 138.706 75.4337C138.706 76.2845 138.37 76.9562 137.698 77.4488C137.049 77.919 136.075 78.1541 134.776 78.1541C134.082 78.1541 133.332 78.1093 132.526 78.0198C131.742 77.9302 130.947 77.8854 130.141 77.8854C129.067 77.8854 128.059 78.0757 127.119 78.4564C126.201 78.8146 125.462 79.4191 124.902 80.27C124.365 81.1208 124.096 82.2627 124.096 83.6957C124.096 85.0167 124.309 86.1138 124.734 86.987C125.16 87.8379 125.753 88.4648 126.514 88.8678C127.298 89.2484 128.182 89.4388 129.167 89.4388C130.444 89.4388 131.294 89.1813 131.72 88.6663C132.145 88.1513 132.358 87.3677 132.358 86.3153C132.358 86.0466 132.336 85.7668 132.291 85.4757C132.268 85.1846 132.212 84.8824 132.123 84.5689L136.59 85.1063Z" fill="#7D5C0F"/>
<path d="M104.207 94.1078C101.879 94.1078 99.8524 93.6936 98.1283 92.8652C96.4043 92.0367 95.0609 90.8277 94.0981 89.238C93.1577 87.6259 92.6875 85.6779 92.6875 83.3941C92.6875 81.5581 92.9786 79.8789 93.5607 78.3563C94.1653 76.8338 95.0049 75.5128 96.0796 74.3933C97.1767 73.2738 98.4306 72.4117 99.8412 71.8072C101.252 71.2027 102.752 70.9004 104.342 70.9004C105.931 70.9004 107.42 71.1915 108.808 71.7736C110.219 72.3558 111.462 73.173 112.536 74.2253C113.611 75.2777 114.451 76.5203 115.055 77.9533C115.66 79.3863 115.962 80.9648 115.962 82.6888C115.962 85.1294 115.47 87.2117 114.484 88.9357C113.522 90.6374 112.156 91.9248 110.387 92.798C108.641 93.6712 106.581 94.1078 104.207 94.1078ZM104.006 86.2489C105.416 86.2489 106.547 85.8794 107.398 85.1406C108.249 84.3793 108.674 83.3158 108.674 81.95C108.674 81.032 108.473 80.2371 108.07 79.5654C107.667 78.8937 107.107 78.3675 106.39 77.9869C105.696 77.6063 104.901 77.4159 104.006 77.4159C103.133 77.4159 102.338 77.6063 101.621 77.9869C100.927 78.3675 100.379 78.8937 99.9755 79.5654C99.5725 80.2371 99.371 81.032 99.371 81.95C99.371 83.3158 99.7964 84.3793 100.647 85.1406C101.498 85.8794 102.618 86.2489 104.006 86.2489Z" fill="#7D5C0F"/>
<path d="M81.5092 95.5177C79.9643 95.5177 78.744 95.3161 77.8484 94.9131C76.9752 94.5101 76.2923 93.872 75.7997 92.9988C75.3743 92.2151 75.0496 91.1292 74.8257 89.741C74.6242 88.3528 74.5234 86.4832 74.5234 84.1322C74.5234 82.2962 74.5906 80.5386 74.7249 78.8593C74.8593 77.1577 75.016 75.8367 75.1951 74.8963C75.4638 73.4857 75.9004 72.4781 76.505 71.8736C77.1319 71.2691 77.9155 70.9668 78.8559 70.9668C79.8411 70.9668 80.6024 71.2691 81.1397 71.8736C81.6995 72.4781 82.0913 73.2954 82.3152 74.3253C82.5615 75.3329 82.6847 76.4636 82.6847 77.7174C82.6847 79.643 82.5167 81.6021 82.1809 83.5949C81.845 85.5876 81.3972 87.4236 80.8375 89.1029L80.1658 89.0693C80.8823 88.3304 81.6883 87.7147 82.5839 87.2221C83.5019 86.7295 84.4423 86.3601 85.4051 86.1138C86.3679 85.8451 87.297 85.7107 88.1927 85.7107C89.4017 85.7107 90.3197 86.013 90.9466 86.6175C91.596 87.1997 91.9206 88.0281 91.9206 89.1029C91.9206 90.1104 91.596 91.0508 90.9466 91.924C90.3197 92.7972 89.4801 93.5025 88.4278 94.0399C87.8456 94.3534 87.1627 94.622 86.3791 94.8459C85.6178 95.0475 84.8117 95.2042 83.9609 95.3161C83.1325 95.4505 82.3152 95.5177 81.5092 95.5177Z" fill="#7D5C0F"/>
<path d="M47.2031 77.92C47.2031 75.3675 47.539 73.5427 48.2107 72.4456C48.9048 71.3261 49.9459 70.7663 51.3341 70.7663C52.3865 70.7663 53.1925 71.0014 53.7523 71.4716C54.3344 71.9194 54.7374 72.5464 54.9613 73.3524C55.2076 74.1361 55.3308 75.0093 55.3308 75.9721C55.3308 76.8229 55.2972 77.8193 55.23 78.9612C55.1852 80.1031 55.1181 81.2674 55.0285 82.454C54.9613 83.6407 54.8718 84.749 54.7598 85.779H54.8942C55.4763 83.1145 56.0249 80.9987 56.5398 79.4314C57.0772 77.8417 57.6258 76.6997 58.1855 76.0057C58.7677 75.2892 59.3834 74.9309 60.0327 74.9309C60.7268 74.9309 61.3537 75.2892 61.9135 76.0057C62.4956 76.6997 63.0554 77.8305 63.5928 79.3978C64.1525 80.9427 64.7347 82.9802 65.3392 85.5103H65.4735C65.4064 84.5027 65.3392 83.4504 65.272 82.3533C65.2272 81.2562 65.1825 80.1702 65.1377 79.0955C65.1153 78.0208 65.1041 77.0244 65.1041 76.1064C65.1041 74.6287 65.216 73.4868 65.4399 72.6807C65.6639 71.8747 65.9885 71.3149 66.4139 71.0014C66.8393 70.688 67.3207 70.5312 67.8581 70.5312C69.2015 70.5312 70.2426 71.1246 70.9815 72.3113C71.7428 73.498 72.1234 75.2444 72.1234 77.5506C72.1234 81.245 71.9107 84.3348 71.4853 86.8201C71.0599 89.283 70.433 91.1414 69.6045 92.3953C68.7985 93.6267 67.7909 94.2425 66.5818 94.2425C65.9997 94.2425 65.4064 94.0522 64.8018 93.6715C64.1973 93.2685 63.604 92.6192 63.0218 91.7236C62.4621 90.828 61.9135 89.6525 61.3761 88.1971C60.8611 86.7418 60.3798 84.9505 59.932 82.8235H59.7976C59.3274 84.9058 58.8348 86.6522 58.3199 88.0628C57.8273 89.451 57.2899 90.5481 56.7078 91.3541C56.148 92.1602 55.5547 92.7423 54.9277 93.1006C54.3008 93.4364 53.6403 93.6044 52.9462 93.6044C52.0058 93.6044 51.1662 93.3021 50.4273 92.6975C49.7108 92.093 49.1175 91.1526 48.6473 89.8764C48.1771 88.6001 47.8189 86.9769 47.5726 85.0065C47.3263 83.0362 47.2031 80.674 47.2031 77.92Z" fill="#7D5C0F"/>
<path d="M28.639 96.8965C27.5195 96.8965 26.6574 96.5495 26.0529 95.8554C25.4708 95.1837 25.1797 93.9522 25.1797 92.161C25.1797 91.2654 25.2692 90.269 25.4484 89.1719C25.6499 88.0748 25.941 86.9217 26.3216 85.7126C26.7022 84.5035 27.1724 83.2609 27.7322 81.9846C28.2919 80.7084 28.93 79.4434 29.6465 78.1895C30.475 76.7565 31.281 75.6034 32.0647 74.7302C32.8483 73.8346 33.6544 73.1853 34.4828 72.7823C35.3336 72.3792 36.2852 72.1777 37.3376 72.1777C38.7034 72.1777 39.9236 72.7375 40.9984 73.857C42.0731 74.9541 42.9575 76.5886 43.6516 78.7605C44.0322 79.9471 44.3457 81.201 44.592 82.522C44.8607 83.8206 45.0622 85.1417 45.1965 86.4851C45.3309 87.8285 45.398 89.1495 45.398 90.4481C45.398 92.5304 45.0286 94.0194 44.2897 94.915C43.5508 95.7882 42.5209 96.2248 41.1999 96.2248C40.058 96.2248 39.1512 95.889 38.4795 95.2173C37.8302 94.5232 37.4271 93.3925 37.2704 91.8251C37.1808 91.0191 37.1361 90.1795 37.1361 89.3062C37.1361 88.433 37.1808 87.5934 37.2704 86.7873L39.0168 89.8436C38.3899 90.0451 37.6063 90.1683 36.6659 90.213C35.7479 90.2578 34.7851 90.2354 33.7775 90.1459C32.7924 90.0563 31.8632 89.8772 30.9899 89.6085L33.6768 86.6194C33.632 87.6494 33.5536 88.6681 33.4417 89.6757C33.3297 90.6832 33.1842 91.59 33.0051 92.3961C32.8259 93.3589 32.5573 94.1873 32.199 94.8814C31.8632 95.5531 31.4042 96.0569 30.822 96.3927C30.2623 96.7286 29.5346 96.8965 28.639 96.8965ZM35.5575 85.3096C36.6771 85.3096 37.5391 85.0073 38.1436 84.4028C38.7481 83.7759 39.0504 82.8914 39.0504 81.7495C39.0504 81.2346 38.9944 80.742 38.8825 80.2718C38.7705 79.7792 38.5914 79.3426 38.3451 78.962C38.1212 78.5813 37.8413 78.2903 37.5055 78.0887C37.1696 77.8648 36.789 77.7529 36.3636 77.7529C35.8486 77.7529 35.3784 77.9096 34.953 78.2231C34.5276 78.5366 34.147 78.9508 33.8111 79.4657C33.4976 79.9807 33.2514 80.5293 33.0722 81.1114C32.9155 81.6936 32.8371 82.2421 32.8371 82.7571C32.8371 83.5184 33.0722 84.1341 33.5424 84.6043C34.035 85.0745 34.7067 85.3096 35.5575 85.3096Z" fill="#7D5C0F"/>
<path d="M17.3365 71.168C20.2248 71.168 22.3519 71.8509 23.7177 73.2167C25.0835 74.5825 25.7664 76.3737 25.7664 78.5903C25.7664 80.1129 25.4081 81.4339 24.6916 82.5534C23.9975 83.6729 23.046 84.5461 21.8369 85.173C20.6278 85.7776 19.262 86.0798 17.7395 86.0798C17.1573 86.0798 16.5416 86.0239 15.8923 85.9119C15.243 85.8 14.5713 85.5985 13.8772 85.3074L14.1459 84.5013C14.325 85.0163 14.4705 85.6544 14.5825 86.4157C14.7168 87.1546 14.8176 87.927 14.8847 88.7331C14.9743 89.5167 15.0191 90.2444 15.0191 90.9161C15.0191 92.4163 14.6832 93.5694 14.0115 94.3754C13.3398 95.1591 12.3323 95.5509 10.9888 95.5509C9.95889 95.5509 9.15284 95.2934 8.5707 94.7784C7.98855 94.2411 7.57433 93.379 7.32804 92.1924C7.10414 90.9833 6.99219 89.3824 6.99219 87.3897C6.99219 84.4566 7.16011 81.9489 7.49597 79.8666C7.83182 77.7843 8.3356 76.1274 9.00731 74.8959C9.65662 73.754 10.6866 72.8472 12.0972 72.1755C13.5077 71.5038 15.2542 71.168 17.3365 71.168ZM16.4632 81.4787C17.6275 81.4787 18.5903 81.1764 19.3516 80.5719C20.1128 79.9673 20.4935 79.1277 20.4935 78.053C20.4935 77.3589 20.2696 76.7879 19.8218 76.3401C19.374 75.8699 18.6351 75.6348 17.6051 75.6348C16.8215 75.6348 16.1274 75.8027 15.5229 76.1386C14.9183 76.4744 14.4481 76.9223 14.1123 77.482C13.7988 78.0194 13.6421 78.6239 13.6421 79.2956C13.6421 79.9673 13.8772 80.5047 14.3474 80.9077C14.8176 81.2883 15.5229 81.4787 16.4632 81.4787Z" fill="#7D5C0F"/>
<defs>
<clipPath id="clip0_929_310">
<rect width="62.1347" height="62.1347" fill="white" transform="translate(62.9297)"/>
</clipPath>
</defs>
</svg>
